<svg width="512" height="512" viewBox="0 0 512 512" fill="none" xmlns="http://www.w3.org/2000/svg">
<rect width="512" height="512" rx="152" fill="#25252F"/>
<path d="M59.5237 191.498H68.9162L100.58 221.234L133.106 191.498H142.17V257H115.223V235.754L98.4885 254.129L82.2053 236.246V257H59.5237V191.498ZM185.322 225.254C182.806 225.254 180.222 226.17 177.57 228.002C174.918 229.834 173.578 231.57 173.55 233.211V257H148.859V206.018H173.55V211.473C174.945 209.367 176.668 207.686 178.718 206.428C180.796 205.17 182.998 204.418 185.322 204.172V225.254ZM200.706 234.441C204.534 234.414 207.419 235.494 209.36 237.682C211.329 239.842 212.313 242.549 212.313 245.803C212.313 249.057 211.11 251.996 208.704 254.621C206.298 257.219 203.099 258.504 199.106 258.477C195.114 258.477 192.161 257.424 190.247 255.318C188.333 253.186 187.376 250.52 187.376 247.32C187.376 244.094 188.647 241.141 191.19 238.461C193.733 235.781 196.905 234.441 200.706 234.441ZM234.756 191.662C248.318 190.322 258.572 189.652 265.517 189.652C272.463 189.652 277.959 190.158 282.006 191.17C286.08 192.182 289.429 193.754 292.054 195.887C297.14 200.043 299.683 206.865 299.683 216.354C299.683 220.619 298.877 224.529 297.263 228.084C295.65 231.639 293.449 234.688 290.66 237.23C287.871 239.773 284.603 241.756 280.857 243.178C277.111 244.6 273.105 245.311 268.84 245.311L261.539 245.146V257H234.756V191.662ZM271.711 206.674C269.359 206.674 265.914 208.301 261.375 211.555V227.018L266.174 224.68C269.345 223.121 271.56 221.631 272.818 220.209C275.17 217.557 276.345 214.918 276.345 212.293C276.345 209.668 275.457 207.932 273.679 207.084C273.105 206.811 272.449 206.674 271.711 206.674ZM315.806 182.393C319.825 182.393 322.806 183.24 324.747 184.936C326.689 186.604 327.646 188.736 327.618 191.334C327.618 193.932 326.374 196.324 323.886 198.512C321.425 200.699 318.13 201.793 314.001 201.793C308.204 201.793 304.595 200.043 303.173 196.543C302.763 195.559 302.558 194.465 302.558 193.262C302.558 192.059 302.845 190.801 303.419 189.488C303.993 188.176 304.855 187 306.003 185.961C308.546 183.582 311.814 182.393 315.806 182.393ZM326.921 257H303.173V206.018H326.921V257ZM361.172 219.881C358.985 219.881 357.891 221.645 357.891 225.172V257H333.528V206.018H346.981L352.846 213.975C355.034 210.939 358.055 208.533 361.911 206.756C365.793 204.979 369.416 204.09 372.78 204.09C378.959 204.09 383.854 205.73 387.463 209.012C391.1 212.293 392.918 216.695 392.918 222.219V257H368.391V232.391C368.391 224.051 365.985 219.881 361.172 219.881ZM421.592 240.471C421.209 241.1 420.976 241.564 420.894 241.865V257H399.238V187.971H420.484V221.234L430.164 206.018H454.322L438.613 228.289L456.865 257H431.845L421.592 240.471Z" fill="#D58FDB"/>
<circle cx="190" cy="327" r="28" fill="#D58FDB" fill-opacity="0.24"/>
<circle cx="256" cy="327" r="28" fill="#D58FDB" fill-opacity="0.64"/>
<circle cx="322" cy="327" r="28" fill="#D58FDB"/>
</svg>
